{
	"asset":{
		"generator":"Khronos glTF Blender I/O v4.4.55",
		"version":"2.0"
	},
	"scene":0,
	"scenes":[
		{
			"name":"Scene",
			"nodes":[
				0,
				1,
				2,
				3,
				4,
				5,
				6,
				7,
				8,
				9,
				10
			]
		}
	],
	"nodes":[
		{
			"name":"Empty",
			"rotation":[
				0.70710688829422,
				0,
				0,
				0.7071066498756409
			],
			"translation":[
				1.0581004619598389,
				0.5628832578659058,
				0
			]
		},
		{
			"mesh":0,
			"name":"Cylinder",
			"scale":[
				0.08252409845590591,
				0.9023367762565613,
				0.08252409845590591
			],
			"translation":[
				0.9215002655982971,
				0.9322987794876099,
				0
			]
		},
		{
			"mesh":1,
			"name":"Sphere.001",
			"scale":[
				1.100916862487793,
				0.8139769434928894,
				1.100916862487793
			],
			"translation":[
				0,
				0.22043214738368988,
				0
			]
		},
		{
			"mesh":2,
			"name":"Cube",
			"rotation":[
				0,
				-0.24307820200920105,
				0,
				0.9700067043304443
			],
			"scale":[
				0.08574105054140091,
				0.5680723786354065,
				0.08574105054140091
			],
			"translation":[
				0.7795671820640564,
				-0.6640280485153198,
				0.42143765091896057
			]
		},
		{
			"mesh":3,
			"name":"Cube.001",
			"rotation":[
				0,
				-0.9700953364372253,
				0,
				0.24272421002388
			],
			"scale":[
				0.08574105054140091,
				0.5680723786354065,
				0.08574105054140091
			],
			"translation":[
				-0.7653789520263672,
				-0.6640280485153198,
				0.42143765091896057
			]
		},
		{
			"mesh":4,
			"name":"Cube.003",
			"rotation":[
				0,
				0.7031835913658142,
				0,
				0.7110083103179932
			],
			"scale":[
				0.0857410579919815,
				0.5680723786354065,
				0.0857410579919815
			],
			"translation":[
				0.0033048950135707855,
				-0.6640280485153198,
				-0.8868386745452881
			]
		},
		{
			"mesh":5,
			"name":"Cylinder.001",
			"rotation":[
				0,
				0,
				0.7071068286895752,
				0.7071068286895752
			],
			"scale":[
				0.08922520279884338,
				0.32523587346076965,
				0.08922520279884338
			],
			"translation":[
				0.6841359734535217,
				1.7653920650482178,
				-0.0001359032467007637
			]
		},
		{
			"mesh":6,
			"name":"Cylinder.002",
			"rotation":[
				0,
				0.9990482330322266,
				0,
				0.04361942410469055
			],
			"scale":[
				0.08252409845590591,
				0.9023367762565613,
				0.08252409845590591
			],
			"translation":[
				-0.9348083734512329,
				0.9322987794876099,
				-0.010479459539055824
			]
		},
		{
			"mesh":7,
			"name":"Cylinder.003",
			"rotation":[
				0.7064338326454163,
				0.7064336538314819,
				0.030843585729599,
				0.030843585729599
			],
			"scale":[
				0.08922520279884338,
				0.32523590326309204,
				0.08922520279884338
			],
			"translation":[
				-0.6983591318130493,
				1.7653920650482178,
				0.010343551635742188
			]
		},
		{
			"mesh":8,
			"name":"Cylinder.004",
			"rotation":[
				0.7071068286895752,
				0,
				0.7071067094802856,
				8.00776120968294e-08
			],
			"scale":[
				0.08922520279884338,
				0.32523587346076965,
				0.08922520279884338
			],
			"translation":[
				-0.007359238341450691,
				1.7539153099060059,
				-0.004407540895044804
			]
		},
		{
			"name":"Empty.001",
			"rotation":[
				-0.7071066498756409,
				0,
				0,
				0.70710688829422
			],
			"translation":[
				1.0581004619598389,
				2.9220852851867676,
				-0.022092141211032867
			]
		}
	],
	"animations":[
		{
			"channels":[
				{
					"sampler":0,
					"target":{
						"node":9,
						"path":"rotation"
					}
				}
			],
			"name":"Cylinder.004Action",
			"samplers":[
				{
					"input":32,
					"interpolation":"LINEAR",
					"output":33
				}
			]
		}
	],
	"materials":[
		{
			"doubleSided":true,
			"name":"Material.001",
			"pbrMetallicRoughness":{
				"baseColorFactor":[
					0.8009396195411682,
					0.28105252981185913,
					0.05929011479020119,
					1
				],
				"metallicFactor":0,
				"roughnessFactor":0.5
			}
		}
	],
	"meshes":[
		{
			"name":"Cylinder",
			"primitives":[
				{
					"attributes":{
						"POSITION":0,
						"NORMAL":1,
						"TEXCOORD_0":2
					},
					"indices":3,
					"material":0
				}
			]
		},
		{
			"name":"Sphere.001",
			"primitives":[
				{
					"attributes":{
						"POSITION":4,
						"NORMAL":5,
						"TEXCOORD_0":6
					},
					"indices":7,
					"material":0
				}
			]
		},
		{
			"name":"Cube.001",
			"primitives":[
				{
					"attributes":{
						"POSITION":8,
						"NORMAL":9,
						"TEXCOORD_0":10
					},
					"indices":11,
					"material":0
				}
			]
		},
		{
			"name":"Cube.002",
			"primitives":[
				{
					"attributes":{
						"POSITION":12,
						"NORMAL":13,
						"TEXCOORD_0":14
					},
					"indices":11,
					"material":0
				}
			]
		},
		{
			"name":"Cube.004",
			"primitives":[
				{
					"attributes":{
						"POSITION":15,
						"NORMAL":16,
						"TEXCOORD_0":17
					},
					"indices":11,
					"material":0
				}
			]
		},
		{
			"name":"Cylinder.002",
			"primitives":[
				{
					"attributes":{
						"POSITION":18,
						"NORMAL":19,
						"TEXCOORD_0":20
					},
					"indices":21,
					"material":0
				}
			]
		},
		{
			"name":"Cylinder.003",
			"primitives":[
				{
					"attributes":{
						"POSITION":22,
						"NORMAL":23,
						"TEXCOORD_0":24
					},
					"indices":3,
					"material":0
				}
			]
		},
		{
			"name":"Cylinder.004",
			"primitives":[
				{
					"attributes":{
						"POSITION":25,
						"NORMAL":26,
						"TEXCOORD_0":27
					},
					"indices":21,
					"material":0
				}
			]
		},
		{
			"name":"Cylinder.005",
			"primitives":[
				{
					"attributes":{
						"POSITION":28,
						"NORMAL":29,
						"TEXCOORD_0":30
					},
					"indices":31,
					"material":0
				}
			]
		}
	],
	"accessors":[
		{
			"bufferView":0,
			"componentType":5126,
			"count":515,
			"max":[
				1.0119054317474365,
				0.893830418586731,
				1.0119054317474365
			],
			"min":[
				-1.0119054317474365,
				-1.0000722408294678,
				-1.0119054317474365
			],
			"type":"VEC3"
		},
		{
			"bufferView":1,
			"componentType":5126,
			"count":515,
			"type":"VEC3"
		},
		{
			"bufferView":2,
			"componentType":5126,
			"count":515,
			"type":"VEC2"
		},
		{
			"bufferView":3,
			"componentType":5123,
			"count":1914,
			"type":"SCALAR"
		},
		{
			"bufferView":4,
			"componentType":5126,
			"count":362,
			"max":[
				0.9999997019767761,
				0,
				0.9999993443489075
			],
			"min":[
				-0.9999990463256836,
				-1,
				-1
			],
			"type":"VEC3"
		},
		{
			"bufferView":5,
			"componentType":5126,
			"count":362,
			"type":"VEC3"
		},
		{
			"bufferView":6,
			"componentType":5126,
			"count":362,
			"type":"VEC2"
		},
		{
			"bufferView":7,
			"componentType":5123,
			"count":1914,
			"type":"SCALAR"
		},
		{
			"bufferView":8,
			"componentType":5126,
			"count":409,
			"max":[
				2.8102638721466064,
				1,
				1.0060114860534668
			],
			"min":[
				-1.1768218278884888,
				-1,
				-1.0718510150909424
			],
			"type":"VEC3"
		},
		{
			"bufferView":9,
			"componentType":5126,
			"count":409,
			"type":"VEC3"
		},
		{
			"bufferView":10,
			"componentType":5126,
			"count":409,
			"type":"VEC2"
		},
		{
			"bufferView":11,
			"componentType":5123,
			"count":2154,
			"type":"SCALAR"
		},
		{
			"bufferView":12,
			"componentType":5126,
			"count":409,
			"max":[
				2.8102638721466064,
				1,
				1.0060114860534668
			],
			"min":[
				-1.1768218278884888,
				-1,
				-1.0718510150909424
			],
			"type":"VEC3"
		},
		{
			"bufferView":13,
			"componentType":5126,
			"count":409,
			"type":"VEC3"
		},
		{
			"bufferView":14,
			"componentType":5126,
			"count":409,
			"type":"VEC2"
		},
		{
			"bufferView":15,
			"componentType":5126,
			"count":409,
			"max":[
				2.8102638721466064,
				1,
				1.0060114860534668
			],
			"min":[
				-1.1768218278884888,
				-1,
				-1.0718510150909424
			],
			"type":"VEC3"
		},
		{
			"bufferView":16,
			"componentType":5126,
			"count":409,
			"type":"VEC3"
		},
		{
			"bufferView":17,
			"componentType":5126,
			"count":409,
			"type":"VEC2"
		},
		{
			"bufferView":18,
			"componentType":5126,
			"count":130,
			"max":[
				1.000000238418579,
				-0.07636761665344238,
				1
			],
			"min":[
				-1,
				-1,
				-1
			],
			"type":"VEC3"
		},
		{
			"bufferView":19,
			"componentType":5126,
			"count":130,
			"type":"VEC3"
		},
		{
			"bufferView":20,
			"componentType":5126,
			"count":130,
			"type":"VEC2"
		},
		{
			"bufferView":21,
			"componentType":5123,
			"count":372,
			"type":"SCALAR"
		},
		{
			"bufferView":22,
			"componentType":5126,
			"count":515,
			"max":[
				1.0119054317474365,
				0.893830418586731,
				1.0119054317474365
			],
			"min":[
				-1.0119054317474365,
				-1.0000722408294678,
				-1.0119054317474365
			],
			"type":"VEC3"
		},
		{
			"bufferView":23,
			"componentType":5126,
			"count":515,
			"type":"VEC3"
		},
		{
			"bufferView":24,
			"componentType":5126,
			"count":515,
			"type":"VEC2"
		},
		{
			"bufferView":25,
			"componentType":5126,
			"count":130,
			"max":[
				1.000000238418579,
				-0.07636761665344238,
				1
			],
			"min":[
				-1,
				-1,
				-1
			],
			"type":"VEC3"
		},
		{
			"bufferView":26,
			"componentType":5126,
			"count":130,
			"type":"VEC3"
		},
		{
			"bufferView":27,
			"componentType":5126,
			"count":130,
			"type":"VEC2"
		},
		{
			"bufferView":28,
			"componentType":5126,
			"count":1079,
			"max":[
				8.989726066589355,
				3.5660009384155273,
				8.949254989624023
			],
			"min":[
				-8.890934944152832,
				-3.4957075119018555,
				-8.931400299072266
			],
			"type":"VEC3"
		},
		{
			"bufferView":29,
			"componentType":5126,
			"count":1079,
			"type":"VEC3"
		},
		{
			"bufferView":30,
			"componentType":5126,
			"count":1079,
			"type":"VEC2"
		},
		{
			"bufferView":31,
			"componentType":5123,
			"count":4368,
			"type":"SCALAR"
		},
		{
			"bufferView":32,
			"componentType":5126,
			"count":90,
			"max":[
				3.75
			],
			"min":[
				0.041666666666666664
			],
			"type":"SCALAR"
		},
		{
			"bufferView":33,
			"componentType":5126,
			"count":90,
			"type":"VEC4"
		}
	],
	"bufferViews":[
		{
			"buffer":0,
			"byteLength":6180,
			"byteOffset":0,
			"target":34962
		},
		{
			"buffer":0,
			"byteLength":6180,
			"byteOffset":6180,
			"target":34962
		},
		{
			"buffer":0,
			"byteLength":4120,
			"byteOffset":12360,
			"target":34962
		},
		{
			"buffer":0,
			"byteLength":3828,
			"byteOffset":16480,
			"target":34963
		},
		{
			"buffer":0,
			"byteLength":4344,
			"byteOffset":20308,
			"target":34962
		},
		{
			"buffer":0,
			"byteLength":4344,
			"byteOffset":24652,
			"target":34962
		},
		{
			"buffer":0,
			"byteLength":2896,
			"byteOffset":28996,
			"target":34962
		},
		{
			"buffer":0,
			"byteLength":3828,
			"byteOffset":31892,
			"target":34963
		},
		{
			"buffer":0,
			"byteLength":4908,
			"byteOffset":35720,
			"target":34962
		},
		{
			"buffer":0,
			"byteLength":4908,
			"byteOffset":40628,
			"target":34962
		},
		{
			"buffer":0,
			"byteLength":3272,
			"byteOffset":45536,
			"target":34962
		},
		{
			"buffer":0,
			"byteLength":4308,
			"byteOffset":48808,
			"target":34963
		},
		{
			"buffer":0,
			"byteLength":4908,
			"byteOffset":53116,
			"target":34962
		},
		{
			"buffer":0,
			"byteLength":4908,
			"byteOffset":58024,
			"target":34962
		},
		{
			"buffer":0,
			"byteLength":3272,
			"byteOffset":62932,
			"target":34962
		},
		{
			"buffer":0,
			"byteLength":4908,
			"byteOffset":66204,
			"target":34962
		},
		{
			"buffer":0,
			"byteLength":4908,
			"byteOffset":71112,
			"target":34962
		},
		{
			"buffer":0,
			"byteLength":3272,
			"byteOffset":76020,
			"target":34962
		},
		{
			"buffer":0,
			"byteLength":1560,
			"byteOffset":79292,
			"target":34962
		},
		{
			"buffer":0,
			"byteLength":1560,
			"byteOffset":80852,
			"target":34962
		},
		{
			"buffer":0,
			"byteLength":1040,
			"byteOffset":82412,
			"target":34962
		},
		{
			"buffer":0,
			"byteLength":744,
			"byteOffset":83452,
			"target":34963
		},
		{
			"buffer":0,
			"byteLength":6180,
			"byteOffset":84196,
			"target":34962
		},
		{
			"buffer":0,
			"byteLength":6180,
			"byteOffset":90376,
			"target":34962
		},
		{
			"buffer":0,
			"byteLength":4120,
			"byteOffset":96556,
			"target":34962
		},
		{
			"buffer":0,
			"byteLength":1560,
			"byteOffset":100676,
			"target":34962
		},
		{
			"buffer":0,
			"byteLength":1560,
			"byteOffset":102236,
			"target":34962
		},
		{
			"buffer":0,
			"byteLength":1040,
			"byteOffset":103796,
			"target":34962
		},
		{
			"buffer":0,
			"byteLength":12948,
			"byteOffset":104836,
			"target":34962
		},
		{
			"buffer":0,
			"byteLength":12948,
			"byteOffset":117784,
			"target":34962
		},
		{
			"buffer":0,
			"byteLength":8632,
			"byteOffset":130732,
			"target":34962
		},
		{
			"buffer":0,
			"byteLength":8736,
			"byteOffset":139364,
			"target":34963
		},
		{
			"buffer":0,
			"byteLength":360,
			"byteOffset":148100
		},
		{
			"buffer":0,
			"byteLength":1440,
			"byteOffset":148460
		}
	],
	"buffers":[
		{
			"byteLength":149900,
			"uri":"eolipile.bin"
		}
	]
}
