{
	"asset":{
		"generator":"Khronos glTF Blender I/O v4.5.47",
		"version":"2.0"
	},
	"scene":0,
	"scenes":[
		{
			"name":"Scene",
			"nodes":[
				0
			]
		}
	],
	"nodes":[
		{
			"mesh":0,
			"name":"Cylinder",
			"rotation":[
				0,
				0,
				-0.7071068286895752,
				0.7071068286895752
			]
		}
	],
	"materials":[
		{
			"doubleSided":true,
			"name":"Material",
			"pbrMetallicRoughness":{
				"baseColorFactor":[
					0.023084240034222603,
					0.01874663680791855,
					0.5172281265258789,
					1
				],
				"roughnessFactor":0.5
			}
		}
	],
	"meshes":[
		{
			"name":"Cylinder",
			"primitives":[
				{
					"attributes":{
						"POSITION":0,
						"NORMAL":1,
						"TEXCOORD_0":2
					},
					"indices":3,
					"material":0
				}
			]
		}
	],
	"accessors":[
		{
			"bufferView":0,
			"componentType":5126,
			"count":97932,
			"max":[
				1.4552934169769287,
				12.009326934814453,
				1.7312650680541992
			],
			"min":[
				-6.011994361877441,
				-1.2776241302490234,
				-1.7334171533584595
			],
			"type":"VEC3"
		},
		{
			"bufferView":1,
			"componentType":5126,
			"count":97932,
			"type":"VEC3"
		},
		{
			"bufferView":2,
			"componentType":5126,
			"count":97932,
			"type":"VEC2"
		},
		{
			"bufferView":3,
			"componentType":5125,
			"count":256437,
			"type":"SCALAR"
		}
	],
	"bufferViews":[
		{
			"buffer":0,
			"byteLength":1175184,
			"byteOffset":0,
			"target":34962
		},
		{
			"buffer":0,
			"byteLength":1175184,
			"byteOffset":1175184,
			"target":34962
		},
		{
			"buffer":0,
			"byteLength":783456,
			"byteOffset":2350368,
			"target":34962
		},
		{
			"buffer":0,
			"byteLength":1025748,
			"byteOffset":3133824,
			"target":34963
		}
	],
	"buffers":[
		{
			"byteLength":4159572,
			"uri":"pump.bin"
		}
	]
}
