{
	"asset":{
		"generator":"Khronos glTF Blender I/O v4.3.47",
		"version":"2.0"
	},
	"scene":0,
	"scenes":[
		{
			"name":"Scene",
			"nodes":[
				2,
				3,
				4,
				9
			]
		}
	],
	"nodes":[
		{
			"mesh":0,
			"name":"Cylinder",
			"rotation":[
				-0.492123007774353,
				0.8705256581306458,
				0,
				3.466659848072595e-08
			],
			"scale":[
				-0.09873832762241364,
				-2.063621997833252,
				-0.09873839467763901
			],
			"translation":[
				-2.563028573989868,
				1.5415345430374146,
				0
			]
		},
		{
			"mesh":1,
			"name":"Sphere.001",
			"translation":[
				-5,
				3,
				0
			]
		},
		{
			"children":[
				0,
				1
			],
			"mesh":2,
			"name":"Sphere"
		},
		{
			"mesh":3,
			"name":"Sphere.002",
			"translation":[
				5.40000057220459,
				0,
				0
			]
		},
		{
			"mesh":4,
			"name":"Cylinder.001",
			"rotation":[
				-0.7006629705429077,
				0.7134924530982971,
				0,
				9.414024049192449e-08
			],
			"scale":[
				-0.09489697217941284,
				-1.9833378791809082,
				-0.09489703178405762
			],
			"translation":[
				2.6877875328063965,
				-0.011343590915203094,
				0
			]
		},
		{
			"mesh":5,
			"name":"Cylinder.002",
			"rotation":[
				-0.492123007774353,
				0.8705256581306458,
				0,
				3.466659848072595e-08
			],
			"scale":[
				-0.09924788773059845,
				-2.0742719173431396,
				-0.09924796223640442
			],
			"translation":[
				-2.563028573989868,
				1.5423011779785156,
				0
			]
		},
		{
			"mesh":6,
			"name":"Cylinder.003",
			"rotation":[
				-0.48129501938819885,
				0.876558780670166,
				0,
				3.576838025765028e-08
			],
			"scale":[
				-0.09924788773059845,
				-2.0742719173431396,
				-0.09924796223640442
			],
			"translation":[
				3.118530511856079,
				1.452787160873413,
				0
			]
		},
		{
			"mesh":7,
			"name":"Sphere.004",
			"translation":[
				-5,
				3,
				0
			]
		},
		{
			"mesh":8,
			"name":"Sphere.005",
			"rotation":[
				0,
				0,
				-0.01239510253071785,
				0.9999231696128845
			],
			"translation":[
				0.7184415459632874,
				2.9704463481903076,
				0
			]
		},
		{
			"children":[
				5,
				6,
				7,
				8
			],
			"mesh":9,
			"name":"Sphere.003",
			"rotation":[
				1,
				0,
				0,
				1.343588280633412e-07
			]
		}
	],
	"materials":[
		{
			"alphaMode":"BLEND",
			"doubleSided":true,
			"name":"Material",
			"pbrMetallicRoughness":{
				"baseColorFactor":[
					0.800000011920929,
					0.800000011920929,
					0.800000011920929,
					0.5354330539703369
				],
				"metallicFactor":0,
				"roughnessFactor":0.5
			}
		}
	],
	"meshes":[
		{
			"name":"Cylinder",
			"primitives":[
				{
					"attributes":{
						"POSITION":0,
						"NORMAL":1,
						"TEXCOORD_0":2
					},
					"indices":3,
					"material":0
				}
			]
		},
		{
			"name":"Sphere.001",
			"primitives":[
				{
					"attributes":{
						"POSITION":4,
						"NORMAL":5,
						"TEXCOORD_0":6
					},
					"indices":7,
					"material":0
				}
			]
		},
		{
			"name":"Sphere",
			"primitives":[
				{
					"attributes":{
						"POSITION":8,
						"NORMAL":9,
						"TEXCOORD_0":10
					},
					"indices":11,
					"material":0
				}
			]
		},
		{
			"name":"Sphere.003",
			"primitives":[
				{
					"attributes":{
						"POSITION":12,
						"NORMAL":13,
						"TEXCOORD_0":14
					},
					"indices":7,
					"material":0
				}
			]
		},
		{
			"name":"Cylinder.001",
			"primitives":[
				{
					"attributes":{
						"POSITION":15,
						"NORMAL":16,
						"TEXCOORD_0":17
					},
					"indices":3,
					"material":0
				}
			]
		},
		{
			"name":"Cylinder.002",
			"primitives":[
				{
					"attributes":{
						"POSITION":18,
						"NORMAL":19,
						"TEXCOORD_0":20
					},
					"indices":3,
					"material":0
				}
			]
		},
		{
			"name":"Cylinder.004",
			"primitives":[
				{
					"attributes":{
						"POSITION":21,
						"NORMAL":22,
						"TEXCOORD_0":23
					},
					"indices":3,
					"material":0
				}
			]
		},
		{
			"name":"Sphere.005",
			"primitives":[
				{
					"attributes":{
						"POSITION":24,
						"NORMAL":25,
						"TEXCOORD_0":26
					},
					"indices":7,
					"material":0
				}
			]
		},
		{
			"name":"Sphere.006",
			"primitives":[
				{
					"attributes":{
						"POSITION":27,
						"NORMAL":28,
						"TEXCOORD_0":29
					},
					"indices":7,
					"material":0
				}
			]
		},
		{
			"name":"Sphere.004",
			"primitives":[
				{
					"attributes":{
						"POSITION":30,
						"NORMAL":31,
						"TEXCOORD_0":32
					},
					"indices":11,
					"material":0
				}
			]
		}
	],
	"accessors":[
		{
			"bufferView":0,
			"componentType":5126,
			"count":192,
			"max":[
				1,
				1,
				1
			],
			"min":[
				-1,
				-1,
				-1
			],
			"type":"VEC3"
		},
		{
			"bufferView":1,
			"componentType":5126,
			"count":192,
			"type":"VEC3"
		},
		{
			"bufferView":2,
			"componentType":5126,
			"count":192,
			"type":"VEC2"
		},
		{
			"bufferView":3,
			"componentType":5123,
			"count":372,
			"type":"SCALAR"
		},
		{
			"bufferView":4,
			"componentType":5126,
			"count":559,
			"max":[
				0.9999997019767761,
				1,
				0.9999993443489075
			],
			"min":[
				-0.9999990463256836,
				-1,
				-1
			],
			"type":"VEC3"
		},
		{
			"bufferView":5,
			"componentType":5126,
			"count":559,
			"type":"VEC3"
		},
		{
			"bufferView":6,
			"componentType":5126,
			"count":559,
			"type":"VEC2"
		},
		{
			"bufferView":7,
			"componentType":5123,
			"count":2880,
			"type":"SCALAR"
		},
		{
			"bufferView":8,
			"componentType":5126,
			"count":296,
			"max":[
				0.9999997019767761,
				1,
				0.9999993443489075
			],
			"min":[
				-0.9999990463256836,
				0,
				-1
			],
			"type":"VEC3"
		},
		{
			"bufferView":9,
			"componentType":5126,
			"count":296,
			"type":"VEC3"
		},
		{
			"bufferView":10,
			"componentType":5126,
			"count":296,
			"type":"VEC2"
		},
		{
			"bufferView":11,
			"componentType":5123,
			"count":1440,
			"type":"SCALAR"
		},
		{
			"bufferView":12,
			"componentType":5126,
			"count":559,
			"max":[
				0.9999997019767761,
				1,
				0.9999993443489075
			],
			"min":[
				-0.9999990463256836,
				-1,
				-1
			],
			"type":"VEC3"
		},
		{
			"bufferView":13,
			"componentType":5126,
			"count":559,
			"type":"VEC3"
		},
		{
			"bufferView":14,
			"componentType":5126,
			"count":559,
			"type":"VEC2"
		},
		{
			"bufferView":15,
			"componentType":5126,
			"count":192,
			"max":[
				1,
				1,
				1
			],
			"min":[
				-1,
				-1,
				-1
			],
			"type":"VEC3"
		},
		{
			"bufferView":16,
			"componentType":5126,
			"count":192,
			"type":"VEC3"
		},
		{
			"bufferView":17,
			"componentType":5126,
			"count":192,
			"type":"VEC2"
		},
		{
			"bufferView":18,
			"componentType":5126,
			"count":192,
			"max":[
				1,
				1,
				1
			],
			"min":[
				-1,
				-1,
				-1
			],
			"type":"VEC3"
		},
		{
			"bufferView":19,
			"componentType":5126,
			"count":192,
			"type":"VEC3"
		},
		{
			"bufferView":20,
			"componentType":5126,
			"count":192,
			"type":"VEC2"
		},
		{
			"bufferView":21,
			"componentType":5126,
			"count":192,
			"max":[
				1,
				1,
				1
			],
			"min":[
				-1,
				-1,
				-1
			],
			"type":"VEC3"
		},
		{
			"bufferView":22,
			"componentType":5126,
			"count":192,
			"type":"VEC3"
		},
		{
			"bufferView":23,
			"componentType":5126,
			"count":192,
			"type":"VEC2"
		},
		{
			"bufferView":24,
			"componentType":5126,
			"count":559,
			"max":[
				0.9999997019767761,
				1,
				0.9999993443489075
			],
			"min":[
				-0.9999990463256836,
				-1,
				-1
			],
			"type":"VEC3"
		},
		{
			"bufferView":25,
			"componentType":5126,
			"count":559,
			"type":"VEC3"
		},
		{
			"bufferView":26,
			"componentType":5126,
			"count":559,
			"type":"VEC2"
		},
		{
			"bufferView":27,
			"componentType":5126,
			"count":559,
			"max":[
				0.9999997019767761,
				1,
				0.9999993443489075
			],
			"min":[
				-0.9999990463256836,
				-1,
				-1
			],
			"type":"VEC3"
		},
		{
			"bufferView":28,
			"componentType":5126,
			"count":559,
			"type":"VEC3"
		},
		{
			"bufferView":29,
			"componentType":5126,
			"count":559,
			"type":"VEC2"
		},
		{
			"bufferView":30,
			"componentType":5126,
			"count":296,
			"max":[
				0.9999997019767761,
				1,
				0.9999993443489075
			],
			"min":[
				-0.9999990463256836,
				0,
				-1
			],
			"type":"VEC3"
		},
		{
			"bufferView":31,
			"componentType":5126,
			"count":296,
			"type":"VEC3"
		},
		{
			"bufferView":32,
			"componentType":5126,
			"count":296,
			"type":"VEC2"
		}
	],
	"bufferViews":[
		{
			"buffer":0,
			"byteLength":2304,
			"byteOffset":0,
			"target":34962
		},
		{
			"buffer":0,
			"byteLength":2304,
			"byteOffset":2304,
			"target":34962
		},
		{
			"buffer":0,
			"byteLength":1536,
			"byteOffset":4608,
			"target":34962
		},
		{
			"buffer":0,
			"byteLength":744,
			"byteOffset":6144,
			"target":34963
		},
		{
			"buffer":0,
			"byteLength":6708,
			"byteOffset":6888,
			"target":34962
		},
		{
			"buffer":0,
			"byteLength":6708,
			"byteOffset":13596,
			"target":34962
		},
		{
			"buffer":0,
			"byteLength":4472,
			"byteOffset":20304,
			"target":34962
		},
		{
			"buffer":0,
			"byteLength":5760,
			"byteOffset":24776,
			"target":34963
		},
		{
			"buffer":0,
			"byteLength":3552,
			"byteOffset":30536,
			"target":34962
		},
		{
			"buffer":0,
			"byteLength":3552,
			"byteOffset":34088,
			"target":34962
		},
		{
			"buffer":0,
			"byteLength":2368,
			"byteOffset":37640,
			"target":34962
		},
		{
			"buffer":0,
			"byteLength":2880,
			"byteOffset":40008,
			"target":34963
		},
		{
			"buffer":0,
			"byteLength":6708,
			"byteOffset":42888,
			"target":34962
		},
		{
			"buffer":0,
			"byteLength":6708,
			"byteOffset":49596,
			"target":34962
		},
		{
			"buffer":0,
			"byteLength":4472,
			"byteOffset":56304,
			"target":34962
		},
		{
			"buffer":0,
			"byteLength":2304,
			"byteOffset":60776,
			"target":34962
		},
		{
			"buffer":0,
			"byteLength":2304,
			"byteOffset":63080,
			"target":34962
		},
		{
			"buffer":0,
			"byteLength":1536,
			"byteOffset":65384,
			"target":34962
		},
		{
			"buffer":0,
			"byteLength":2304,
			"byteOffset":66920,
			"target":34962
		},
		{
			"buffer":0,
			"byteLength":2304,
			"byteOffset":69224,
			"target":34962
		},
		{
			"buffer":0,
			"byteLength":1536,
			"byteOffset":71528,
			"target":34962
		},
		{
			"buffer":0,
			"byteLength":2304,
			"byteOffset":73064,
			"target":34962
		},
		{
			"buffer":0,
			"byteLength":2304,
			"byteOffset":75368,
			"target":34962
		},
		{
			"buffer":0,
			"byteLength":1536,
			"byteOffset":77672,
			"target":34962
		},
		{
			"buffer":0,
			"byteLength":6708,
			"byteOffset":79208,
			"target":34962
		},
		{
			"buffer":0,
			"byteLength":6708,
			"byteOffset":85916,
			"target":34962
		},
		{
			"buffer":0,
			"byteLength":4472,
			"byteOffset":92624,
			"target":34962
		},
		{
			"buffer":0,
			"byteLength":6708,
			"byteOffset":97096,
			"target":34962
		},
		{
			"buffer":0,
			"byteLength":6708,
			"byteOffset":103804,
			"target":34962
		},
		{
			"buffer":0,
			"byteLength":4472,
			"byteOffset":110512,
			"target":34962
		},
		{
			"buffer":0,
			"byteLength":3552,
			"byteOffset":114984,
			"target":34962
		},
		{
			"buffer":0,
			"byteLength":3552,
			"byteOffset":118536,
			"target":34962
		},
		{
			"buffer":0,
			"byteLength":2368,
			"byteOffset":122088,
			"target":34962
		}
	],
	"buffers":[
		{
			"byteLength":124456,
			"uri":"neural.bin"
		}
	]
}
